<svg fill="none" height="512" viewBox="0 0 512 512" width="512" xmlns="http://www.w3.org/2000/svg" xmlns:xlink="http://www.w3.org/1999/xlink"><clipPath id="a"><path d="m0 0h512v512h-512z"/></clipPath><clipPath id="b"><path d="m80 80h352v352h-352z"/></clipPath><mask id="c" height="352" maskUnits="userSpaceOnUse" width="352" x="80" y="80"><path d="m432 80h-352v352h352z" fill="#fff"/></mask><g clip-path="url(#a)"><path d="m384 0h-256c-70.6925 0-128 57.3075-128 128v256c0 70.692 57.3075 128 128 128h256c70.692 0 128-57.308 128-128v-256c0-70.6925-57.308-128-128-128z" fill="#000"/><g clip-path="url(#b)"><g mask="url(#c)"><path d="m284.727 367.234c6.817 0 12.864-.989 18.142-2.969 5.278-1.979 9.896-4.508 13.854-7.586 3.958-3.299 7.257-7.038 9.896-11.216s4.838-8.466 6.597-12.864c3.959-10.336 6.267-21.991 6.927-34.966v74.879h-169.549l115.122-225.625h-59.705c-7.037 0-13.194.989-18.472 2.968-5.058 1.98-9.566 4.619-13.524 7.917-3.739 3.299-6.928 7.037-9.566 11.215-2.639 4.179-4.838 8.467-6.598 12.865-3.958 10.336-6.267 21.881-6.927 34.636v-74.879h169.219l-115.121 225.625z" fill="#fff"/></g></g></g></svg>